<?xml version="1.0" encoding="UTF-8"?>
<!DOCTYPE svg PUBLIC "-//W3C//DTD SVG 1.1//EN" "http://www.w3.org/Graphics/SVG/1.1/DTD/svg11.dtd">
<svg xmlns="http://www.w3.org/2000/svg" version="1.1" width="512px" height="512px" style="shape-rendering:geometricPrecision; text-rendering:geometricPrecision; image-rendering:optimizeQuality; fill-rule:evenodd; clip-rule:evenodd" xmlns:xlink="http://www.w3.org/1999/xlink">
<g><path style="opacity:1" fill="#fefffe" d="M -0.5,-0.5 C 170.167,-0.5 340.833,-0.5 511.5,-0.5C 511.5,170.167 511.5,340.833 511.5,511.5C 340.833,511.5 170.167,511.5 -0.5,511.5C -0.5,340.833 -0.5,170.167 -0.5,-0.5 Z"/></g>
<g><path style="opacity:1" fill="#000000" d="M 374.5,83.5 C 409.916,117.415 444.916,151.915 479.5,187C 458.169,187.5 436.836,187.667 415.5,187.5C 415.5,235.167 415.5,282.833 415.5,330.5C 388.833,330.5 362.167,330.5 335.5,330.5C 335.5,282.833 335.5,235.167 335.5,187.5C 314.164,187.667 292.831,187.5 271.5,187C 306.035,152.632 340.368,118.132 374.5,83.5 Z"/></g>
<g><path style="opacity:1" fill="#000000" d="M 95.5,84.5 C 122.167,84.5 148.833,84.5 175.5,84.5C 175.5,111.167 175.5,137.833 175.5,164.5C 148.833,164.5 122.167,164.5 95.5,164.5C 95.5,137.833 95.5,111.167 95.5,84.5 Z"/></g>
<g><path style="opacity:1" fill="#000000" d="M 95.5,180.5 C 122.167,180.5 148.833,180.5 175.5,180.5C 175.5,228.167 175.5,275.833 175.5,323.5C 196.836,323.333 218.169,323.5 239.5,324C 204.986,358.68 170.32,393.18 135.5,427.5C 100.68,393.18 66.0137,358.68 31.5,324C 52.8307,323.5 74.1641,323.333 95.5,323.5C 95.5,275.833 95.5,228.167 95.5,180.5 Z"/></g>
<g><path style="opacity:1" fill="#000000" d="M 335.5,346.5 C 362.167,346.5 388.833,346.5 415.5,346.5C 415.5,373.167 415.5,399.833 415.5,426.5C 388.833,426.5 362.167,426.5 335.5,426.5C 335.5,399.833 335.5,373.167 335.5,346.5 Z"/></g>
<g><path style="opacity:1" fill="#fefffe" d="M 351.5,362.5 C 367.5,362.5 383.5,362.5 399.5,362.5C 399.5,378.5 399.5,394.5 399.5,410.5C 383.5,410.5 367.5,410.5 351.5,410.5C 351.5,394.5 351.5,378.5 351.5,362.5 Z"/></g>
</svg>
