<?xml version="1.0" encoding="UTF-8"?>
<!DOCTYPE svg PUBLIC "-//W3C//DTD SVG 1.1//EN" "http://www.w3.org/Graphics/SVG/1.1/DTD/svg11.dtd">
<svg xmlns="http://www.w3.org/2000/svg" version="1.1" width="2100px" height="420px" style="shape-rendering:geometricPrecision; text-rendering:geometricPrecision; image-rendering:optimizeQuality; fill-rule:evenodd; clip-rule:evenodd" xmlns:xlink="http://www.w3.org/1999/xlink">
<g><path style="opacity:1" fill="#fefefe" d="M -0.5,-0.5 C 33.1667,-0.5 66.8333,-0.5 100.5,-0.5C 67.0722,70.0197 33.4055,140.353 -0.5,210.5C -0.5,140.167 -0.5,69.8333 -0.5,-0.5 Z"/></g>
<g><path style="opacity:1" fill="#000000" d="M 100.5,-0.5 C 467.5,-0.5 834.5,-0.5 1201.5,-0.5C 1134.83,139.5 1068.17,279.5 1001.5,419.5C 667.5,419.5 333.5,419.5 -0.5,419.5C -0.5,349.833 -0.5,280.167 -0.5,210.5C 33.4055,140.353 67.0722,70.0197 100.5,-0.5 Z"/></g>
<g><path style="opacity:1" fill="#fefefe" d="M 1201.5,-0.5 C 1500.83,-0.5 1800.17,-0.5 2099.5,-0.5C 2099.5,139.5 2099.5,279.5 2099.5,419.5C 1733.5,419.5 1367.5,419.5 1001.5,419.5C 1068.17,279.5 1134.83,139.5 1201.5,-0.5 Z"/></g>
</svg>
