<svg xmlns="http://www.w3.org/2000/svg" version="1.1" width="3100px" height="310px" style="shape-rendering:geometricPrecision; text-rendering:geometricPrecision; image-rendering:optimizeQuality; fill-rule:evenodd; clip-rule:evenodd" xmlns:xlink="http://www.w3.org/1999/xlink">
<g><path style="opacity:1" fill="#000000" d="M -0.5,-0.5 C 366.167,-0.5 732.833,-0.5 1099.5,-0.5C 1032.83,102.833 966.167,206.167 899.5,309.5C 599.5,309.5 299.5,309.5 -0.5,309.5C -0.5,206.167 -0.5,102.833 -0.5,-0.5 Z"/></g>
<g><path style="opacity:1" fill="#ffffff" d="M 1099.5,-0.5 C 1466.17,-0.5 1832.83,-0.5 2199.5,-0.5C 2133.14,102.851 2066.81,206.184 2000.5,309.5C 1633.5,309.5 1266.5,309.5 899.5,309.5C 966.167,206.167 1032.83,102.833 1099.5,-0.5 Z"/></g>
<g><path style="opacity:1" fill="#000000" d="M 2199.5,-0.5 C 2499.5,-0.5 2799.5,-0.5 3099.5,-0.5C 3099.5,102.833 3099.5,206.167 3099.5,309.5C 2733.17,309.5 2366.83,309.5 2000.5,309.5C 2066.81,206.184 2133.14,102.851 2199.5,-0.5 Z"/></g>
</svg>